<svg xmlns="http://www.w3.org/2000/svg" id="Layer_1" width="256" height="256" data-name="Layer 1" viewBox="0 0 256 256"><path d="M102.4 157.2l-35.5 18.7-3-4.2 18.5-21.8h13.9l6.1 7.3zm71.3-42.7a50.9 50.9 0 0 1-2.5 16h-86c-2.1-4.8-2.5-10.5-2.5-16a45.5 45.5 0 0 1 91 0zm-103 20.2h115v10.93h-115zm43.3 36.4H85.4l19.9-10.5 8.7 10.5zm76.1.8l-3 4-35.7-18.7 6.3-7.3h13.9l18.5 22z"/><path d="M127 0L16.2 64v128L127 256l110.8-64V64zm67.3 173l-4.8 6.9a2.2 2.2 0 0 1-2.7.6l-10.1-5.2H77.2l-10.1 5.3a2.3 2.3 0 0 1-2.7-.6l-4.9-7a2.2 2.2 0 0 1 .2-2.5l17.5-20.6h-8.6a2 2 0 0 1-2.1-2.1v-15.2a2 2 0 0 1 2.1-2.1h12.2a58.8 58.8 0 0 1-2.3-16 49.7 49.7 0 0 1 99.4 0 51.7 51.7 0 0 1-2.3 16h12.2a2 2 0 0 1 2.1 2.1v15.1a2 2 0 0 1-2.1 2.1H177l17.2 20.6a2.2 2.2 0 0 1 .1 2.6z"/><path d="M152.2 149.9l-17.6 21.2h-15.2l-17.6-21.2h50.4zm16.4 21.2H140l8.7-10.5 19.9 10.5z"/></svg>