<svg xmlns="http://www.w3.org/2000/svg" id="Layer_1" width="256" height="256" data-name="Layer 1" viewBox="0 0 256 256"><path d="M130.4 85.8v42.5h-30.3l30.3-42.5zm-2.1-4.2l-33.4 46.7H72.4c6.5-25.5 29-45 55.9-46.7zm64.3 46.7h-58V81.4a62.5 62.5 0 0 1 58 46.9zm-58 20h9.5v23.33h-9.5zm-72.7-15.8h141.3v11.56H61.9z"/><path d="M132.5.5l-110.8 64v128l110.8 64 110.8-64v-128zm90.6 147.8h-27.8v25.4a2 2 0 0 1-2.1 2.1H71.7a2 2 0 0 1-2.1-2.1v-25.4H41.9a2.1 2.1 0 0 1 0-4.2h15.8v-13.7a2 2 0 0 1 2.1-2.1H68a66.6 66.6 0 0 1 64.3-51.1c.2-.2.4-.2.8 0 31.1.2 57 22.1 63.9 51.1h8.2a2 2 0 0 1 2.1 2.1V144h15.8a2.1 2.1 0 0 1 0 4.2z"/><path d="M148.3 148.3h42.9v23.33h-42.9zm-74.5 0h56.5v23.33H73.8z"/></svg>