<svg xmlns="http://www.w3.org/2000/svg"><symbol id="mars-1" viewBox="0 0 256 256"><path d="M102.4 157.2l-35.5 18.7-3-4.2 18.5-21.8h13.9l6.1 7.3zm71.3-42.7a50.9 50.9 0 0 1-2.5 16h-86c-2.1-4.8-2.5-10.5-2.5-16a45.5 45.5 0 0 1 91 0zm-103 20.2h115v10.93h-115zm43.3 36.4H85.4l19.9-10.5 8.7 10.5zm76.1.8l-3 4-35.7-18.7 6.3-7.3h13.9l18.5 22z"/><path d="M127 0L16.2 64v128L127 256l110.8-64V64zm67.3 173l-4.8 6.9a2.2 2.2 0 0 1-2.7.6l-10.1-5.2H77.2l-10.1 5.3a2.3 2.3 0 0 1-2.7-.6l-4.9-7a2.2 2.2 0 0 1 .2-2.5l17.5-20.6h-8.6a2 2 0 0 1-2.1-2.1v-15.2a2 2 0 0 1 2.1-2.1h12.2a58.8 58.8 0 0 1-2.3-16 49.7 49.7 0 0 1 99.4 0 51.7 51.7 0 0 1-2.3 16h12.2a2 2 0 0 1 2.1 2.1v15.1a2 2 0 0 1-2.1 2.1H177l17.2 20.6a2.2 2.2 0 0 1 .1 2.6z"/><path d="M152.2 149.9l-17.6 21.2h-15.2l-17.6-21.2h50.4zm16.4 21.2H140l8.7-10.5 19.9 10.5z"/></symbol><symbol id="mars-2" viewBox="0 0 256 256"><path d="M96 156.8h21v13.24H96zm-17.6 0h13.5v13.24H78.4zm95.9-45.6H81.8c1-27.1 21.7-42 46.3-42s45.1 14.9 46.2 42zm-53 45.6h13.4v13.24h-13.4zm42.9 0h13.5v13.24h-13.5zm-98.4-41.4v37.2h124.4v-37.2zm112.5 27.1H127a2.1 2.1 0 1 1 0-4.2h51.3a2.1 2.1 0 1 1 0 4.2z"/><path d="M128-1L17.2 63v128L128 255l110.8-64V63zm66.4 155.7a2 2 0 0 1-2.1 2.1h-10.5V170h10.5a2.1 2.1 0 1 1 0 4.2H63.7a2.1 2.1 0 0 1 0-4.2h10.5v-13.2H63.7a2 2 0 0 1-2.1-2.1v-41.4a2 2 0 0 1 2.1-2.1h13.8C78.6 81.4 100.9 65 128 65s49.4 16.4 50.5 46.3h13.9a2 2 0 0 1 2.1 2.1z"/><path d="M138.9 156.8h21v13.24h-21z"/></symbol><symbol id="mars-3" viewBox="0 0 256 256"><path d="M130.4 85.8v42.5h-30.3l30.3-42.5zm-2.1-4.2l-33.4 46.7H72.4c6.5-25.5 29-45 55.9-46.7zm64.3 46.7h-58V81.4a62.5 62.5 0 0 1 58 46.9zm-58 20h9.5v23.33h-9.5zm-72.7-15.8h141.3v11.56H61.9z"/><path d="M132.5.5l-110.8 64v128l110.8 64 110.8-64v-128zm90.6 147.8h-27.8v25.4a2 2 0 0 1-2.1 2.1H71.7a2 2 0 0 1-2.1-2.1v-25.4H41.9a2.1 2.1 0 0 1 0-4.2h15.8v-13.7a2 2 0 0 1 2.1-2.1H68a66.6 66.6 0 0 1 64.3-51.1c.2-.2.4-.2.8 0 31.1.2 57 22.1 63.9 51.1h8.2a2 2 0 0 1 2.1 2.1V144h15.8a2.1 2.1 0 0 1 0 4.2z"/><path d="M148.3 148.3h42.9v23.33h-42.9zm-74.5 0h56.5v23.33H73.8z"/></symbol></svg>