<svg xmlns="http://www.w3.org/2000/svg" id="Layer_1" width="256" height="256" data-name="Layer 1" viewBox="0 0 256 256"><path d="M96 156.8h21v13.24H96zm-17.6 0h13.5v13.24H78.4zm95.9-45.6H81.8c1-27.1 21.7-42 46.3-42s45.1 14.9 46.2 42zm-53 45.6h13.4v13.24h-13.4zm42.9 0h13.5v13.24h-13.5zm-98.4-41.4v37.2h124.4v-37.2zm112.5 27.1H127a2.1 2.1 0 1 1 0-4.2h51.3a2.1 2.1 0 1 1 0 4.2z"/><path d="M128-1L17.2 63v128L128 255l110.8-64V63zm66.4 155.7a2 2 0 0 1-2.1 2.1h-10.5V170h10.5a2.1 2.1 0 1 1 0 4.2H63.7a2.1 2.1 0 0 1 0-4.2h10.5v-13.2H63.7a2 2 0 0 1-2.1-2.1v-41.4a2 2 0 0 1 2.1-2.1h13.8C78.6 81.4 100.9 65 128 65s49.4 16.4 50.5 46.3h13.9a2 2 0 0 1 2.1 2.1z"/><path d="M138.9 156.8h21v13.24h-21z"/></svg>