<svg xmlns="http://www.w3.org/2000/svg"><symbol id="mars-1" viewBox="0 0 256 256"><path d="M98.3 149.9H84.4l-18.5 21.8 3 4.2 35.5-18.7-6.1-7.3zm74.8-19.4a50.8 50.8 0 0 0 2.5-16 45.5 45.5 0 0 0-91 0c0 5.5.4 11.1 2.5 16zm-100.4 4.2h115v10.93h-115zm14.7 36.4H116l-8.7-10.5-19.9 10.5zm72.3-21.2l-6.3 7.3 35.7 18.7 3-4-18.5-22h-13.9z"/><path d="M129 0L18.1 64v128L129 256l110.9-64V64zm67.3 173l-4.8 6.9a2.2 2.2 0 0 1-2.7.6l-10.1-5.3H79.2l-10.1 5.3a2.3 2.3 0 0 1-2.7-.6l-4.9-6.9a2.2 2.2 0 0 1 .2-2.5l17.4-20.6h-8.5a2 2 0 0 1-2.1-2.1v-15.2a2 2 0 0 1 2.1-2.1h12.1a58.7 58.7 0 0 1-2.3-16 49.7 49.7 0 0 1 99.4 0 51.6 51.6 0 0 1-2.3 16h12.2a2 2 0 0 1 2.1 2.1v15.1a2 2 0 0 1-2.1 2.1H179l17.2 20.6a2.2 2.2 0 0 1 .1 2.6z"/><path d="M103.8 149.9l17.6 21.2h15.2l17.6-21.2h-50.4zm38.2 21.2h28.6l-19.9-10.5-8.7 10.5z"/><path fill="#fff" d="M179 149.9h10.7a2 2 0 0 0 2.1-2.1v-15.2a2 2 0 0 0-2.1-2.1h-12.1a51.6 51.6 0 0 0 2.3-16 49.7 49.7 0 0 0-99.4 0 58.7 58.7 0 0 0 2.3 16H70.6a2 2 0 0 0-2.1 2.1v15.1a2 2 0 0 0 2.1 2.1h8.6l-17.5 20.7a2.2 2.2 0 0 0-.2 2.5l4.8 6.9a2.3 2.3 0 0 0 2.7.6l10.1-5.3h99.4l10.1 5.3a2.2 2.2 0 0 0 2.7-.6l4.8-6.9a2.2 2.2 0 0 0 0-2.5zm-48.7-80.8a45.5 45.5 0 0 1 45.4 45.4 50.8 50.8 0 0 1-2.5 16h-86c-2.1-4.8-2.5-10.5-2.5-16a45.7 45.7 0 0 1 45.6-45.4zm-57.6 76.6v-11h115v10.9zM68.9 176l-2.9-4.2 18.5-21.9h13.8l6.1 7.4zm18.5-4.8l20-10.5 8.6 10.5zm34.1 0L103.8 150h50.5l-17.7 21.2zm20.6 0l8.6-10.5 20 10.5zm47.1 4.8l-35.7-18.7 6.3-7.4h13.9l18.5 22.1z"/></symbol><symbol id="mars-2" viewBox="0 0 256 256"><path d="M96 156.8h21v13.24H96zm-17.6 0h13.5v13.24H78.4zM128 69.2c-24.6 0-45.2 14.9-46.2 42h92.5c-1.1-27.1-21.7-42-46.3-42zm-6.7 87.6h13.5v13.24h-13.5zm42.9 0h13.5v13.24h-13.5zm-98.4-4.2h124.4v-37.2H65.8zm61.2-14.3h51.3a2.1 2.1 0 0 1 0 4.2h-51.4a2.1 2.1 0 1 1 0-4.2z"/><path d="M128-1L17.1 63v128L128 255l110.9-64V63zm66.4 155.7a2 2 0 0 1-2.1 2.1h-10.5V170h10.5a2.1 2.1 0 1 1 0 4.2H63.7a2.1 2.1 0 1 1 0-4.2h10.5v-13.2H63.7a2 2 0 0 1-2.1-2.1v-41.4a2 2 0 0 1 2.1-2.1h13.8C78.6 81.4 100.9 65 128 65s49.4 16.4 50.5 46.2h13.9a2 2 0 0 1 2.1 2.1z"/><path d="M138.9 156.8h21v13.24h-21z"/><path fill="#fff" d="M126.9 142.6h51.3a2.1 2.1 0 0 0 0-4.2h-51.3a2.1 2.1 0 1 0 0 4.2z"/><path fill="#fff" d="M192.3 111.2h-13.9C177.4 81.4 155.1 65 128 65s-49.4 16.4-50.5 46.2H63.7a2 2 0 0 0-2.1 2.1v41.4a2 2 0 0 0 2.1 2.1h10.5V170H63.7a2.1 2.1 0 1 0 0 4.2h128.6a2.1 2.1 0 1 0 0-4.2h-10.5v-13.2h10.5a2 2 0 0 0 2.1-2.1v-41.4a2 2 0 0 0-2.1-2.1zm-64.3-42c24.6 0 45.2 14.9 46.2 42H81.7c1.1-27.1 21.7-42 46.3-42zM91.8 170.1H78.4v-13.3h13.4zm25.2 0H96v-13.3h21zm17.7 0h-13.4v-13.3h13.5zm25.2 0h-21v-13.3h21zm17.7 0h-13.4v-13.3h13.5zm12.6-17.4H65.8v-37.3h124.4z"/></symbol><symbol id="mars-3" viewBox="0 0 256 256"><path d="M126.4 129.3V86.8l-30.3 42.5h30.3zm-2.1-46.7c-26.9 1.7-49.4 21.2-55.9 46.7h22.5zm6.3-.2v46.9h58a62.5 62.5 0 0 0-58-46.9zm0 66.9h9.5v23.33h-9.5zm-72.7-15.8h141.3v11.56H57.9z"/><path d="M128.5 1.5l-110.9 64v128l110.9 64 110.9-64v-128zm90.6 147.8h-27.7v25.4a2 2 0 0 1-2.1 2.1H67.7a2 2 0 0 1-2.1-2.1v-25.4H37.9a2.1 2.1 0 0 1 0-4.2h15.8v-13.7a2 2 0 0 1 2.1-2.1H64a66.7 66.7 0 0 1 64.3-51.1c.2-.2.4-.2.8 0 31.1.2 57 22.1 63.9 51.1h8.2a2 2 0 0 1 2.1 2.1v13.7h15.8a2.1 2.1 0 1 1 0 4.2z"/><path d="M144.3 149.3h42.9v23.33h-42.9zm-74.5 0h56.5v23.33H69.8z"/><path fill="#fff" d="M219.1 145.1h-15.8v-13.7a2 2 0 0 0-2.1-2.1H193c-6.9-29-32.8-50.9-63.9-51.1-.4-.2-.6-.2-.8 0A66.7 66.7 0 0 0 64 129.3h-8.2a2 2 0 0 0-2.1 2.1v13.7H37.9a2.1 2.1 0 0 0 0 4.2h27.7v25.4a2 2 0 0 0 2.1 2.1h121.6a2 2 0 0 0 2.1-2.1v-25.4h27.7a2.1 2.1 0 1 0 0-4.2zm-88.5-62.7a62.5 62.5 0 0 1 58 46.9h-58zm-6.3.2l-33.4 46.7H68.4c6.5-25.5 29-45 55.9-46.7zm2.1 4.2v42.5H96.1zm0 85.8H69.8v-23.3h56.5zm13.7 0h-9.5v-23.3h9.5zm47.1 0h-42.9v-23.3h42.9zm12-27.5H57.9v-11.6h141.2z"/></symbol></svg>